<?xml version="1.0" encoding="UTF-8" standalone="no"?>
<svg
   xmlns:dc="http://purl.org/dc/elements/1.1/"
   xmlns:cc="http://creativecommons.org/ns#"
   xmlns:rdf="http://www.w3.org/1999/02/22-rdf-syntax-ns#"
   xmlns:svg="http://www.w3.org/2000/svg"
   xmlns="http://www.w3.org/2000/svg"
   xmlns:sodipodi="http://sodipodi.sourceforge.net/DTD/sodipodi-0.dtd"
   xmlns:inkscape="http://www.inkscape.org/namespaces/inkscape"
   version="1.1"
   height="789.98999"
   width="898.789"
   id="logo"
   sodipodi:docname="logo.svg"
   inkscape:version="0.92.1 r15371">
  <metadata
     id="metadata41">
    <rdf:RDF>
      <cc:Work
         rdf:about="">
        <dc:format>image/svg+xml</dc:format>
        <dc:type
           rdf:resource="http://purl.org/dc/dcmitype/StillImage" />
        <dc:title></dc:title>
      </cc:Work>
    </rdf:RDF>
  </metadata>
  <defs
     id="defs39" />
  <sodipodi:namedview
     pagecolor="#ffffff"
     bordercolor="#666666"
     borderopacity="1"
     objecttolerance="10"
     gridtolerance="10"
     guidetolerance="10"
     inkscape:pageopacity="0"
     inkscape:pageshadow="2"
     inkscape:window-width="1920"
     inkscape:window-height="1051"
     id="namedview37"
     showgrid="false"
     inkscape:snap-page="true"
     inkscape:snap-bbox="true"
     inkscape:bbox-nodes="true"
     inkscape:zoom="0.855"
     inkscape:cx="500"
     inkscape:cy="406.43275"
     inkscape:window-x="0"
     inkscape:window-y="0"
     inkscape:window-maximized="1"
     inkscape:current-layer="logo" />
  <style
     type="text/css"
     id="style2"><![CDATA[ polygon { fill:#ffffff; stroke-width:0; } ]]></style>
  <path
     d="M 435.52926,-1.1488281e-4 404.34957,17.999885 V 133.40419 l -137.20703,80.65234 -0.10351,-0.0566 -15.24805,9.08203 -15.58203,9.1582 v 0.11915 l -0.0996,0.0605 0.23633,17.40039 0.14453,18.41992 0.10742,0.0605 0.002,0.11914 15.58789,8.7207 15.6211,8.85938 0.10351,-0.0605 136.4375,76.33985 v 80.66015 l -137.24219,81.09961 -0.0684,-0.0391 -17.12891,10.20117 -13.74024,8.11914 v 0.0625 l -0.0605,0.0371 0.25,18.31836 0.17969,17.57227 0.0586,0.0332 0.002,0.0762 15.86524,8.87696 15.42383,8.70312 0.0644,-0.0371 105.50586,59.0332 -135.43946,81.58399 0.66993,36 31.50976,17.41015 181.21875,-109.16015 0.14258,-0.084 15.14838,-8.74603 v -0.27734 l 0.24023,-0.14258 -0.002,-0.10547 0.0918,-0.0547 -0.33008,-17.70508 v -175.2012 l 64.91992,-38.36133 136.80078,79.79883 v 0.18945 l 15.69922,8.96876 15.24023,8.89062 0.16016,-0.0918 0.16016,0.0918 15.23437,-8.88672 15.70508,-8.97266 v -0.18945 l 137.0606,-79.95117 31.09961,-18.14062 -0.16016,-36 -167.91992,-95.95118 v -115.9082 l -31.17969,-18 -31.17969,18 v 116.09375 l -0.0801,0.0469 0.0801,18 v 139.5781 l -105.82617,-61.73242 -0.004,-0.29688 -15.45898,-8.72265 -15.37109,-8.9668 -0.25782,0.14844 -0.26172,-0.14844 -15.14843,8.95117 -15.5918,8.90821 -0.002,0.30664 -33.71875,19.92578 v -44.36914 l 0.24023,-0.14258 -0.24023,-17.64063 V 209.48622 l 135.12114,76.51367 31.0293,-18.25977 -0.30078,-36 -138.76563,-78.57812 101.05664,-59.402345 -0.28125,-36 -31.31836,-17.75977 -96.54101,56.74805 V 17.999885 Z M 404.34957,205.73817 v 85.08984 l -74.16211,-41.49609 z m -372.820304,26.26172 -31.17968777,18 V 383.85731 L -3.0767578e-5,401.36903 0.34957823,401.57997 v 194.41992 l 31.17968777,18 31.179686,-18 V 402.41786 l 75.640618,-41.65039 v 123.65625 l -0.35937,0.21679 0.35937,17.51954 v 17.83984 l 0.3711,0.21289 0.008,0.41797 15.30664,8.42383 15.49414,8.94531 0.36914,-0.21289 0.37109,0.20312 15.10938,-9.14062 15.32989,-8.84961 v -0.42383 l 146.57422,-88.66797 15.21679,-8.55859 0.008,-0.65039 0.56054,-0.33984 -0.35742,-17.45704 0.19922,-17.54296 -0.56641,-0.33594 -0.0137,-0.6543 -15.30078,-8.42187 -146.32031,-86.71289 v -0.23438 l -15.42188,-8.9043 -15.02734,-9.08593 -0.1582,0.0859 -0.16211,-0.0957 -0.20704,0.11719 -0.20312,-0.11719 -15.45898,8.92578 -91.361328,50.3086 v -81.23435 z m 699.179684,129.72852 74.46679,42.55078 -74.46679,43.43945 z m -530,0.98828 70.1289,41.55859 -70.1289,42.42383 z m 203.64062,152.64648 v 85.46484 l -74.28906,-41.5664 z"
     id="polygon4"
     style="fill:#ffffff;fill-opacity:1"
     inkscape:connector-curvature="0" />
</svg>
